<?xml version="1.0" standalone="no"?>
<!DOCTYPE svg PUBLIC "-//W3C//DTD SVG 20010904//EN"
 "http://www.w3.org/TR/2001/REC-SVG-20010904/DTD/svg10.dtd">
<svg version="1.0" xmlns="http://www.w3.org/2000/svg"
 width="704.000000pt" height="704.000000pt" viewBox="0 0 704.000000 704.000000"
 preserveAspectRatio="xMidYMid meet">
<metadata>
Created by potrace 1.11, written by Peter Selinger 2001-2013
</metadata>
<g transform="translate(0.000000,704.000000) scale(0.100000,-0.100000)"
fill="#000000" stroke="none">
<path d="M2585 6883 c-38 -8 -85 -22 -105 -30 -19 -9 -37 -17 -40 -17 -3 -1
-12 -6 -20 -11 -24 -16 -54 -34 -70 -41 -48 -25 -159 -137 -203 -207 -20 -31
-37 -61 -37 -66 0 -4 -6 -21 -14 -37 -24 -48 -47 -183 -45 -262 6 -244 146
-460 364 -561 96 -46 180 -61 305 -57 195 7 322 63 456 201 88 92 149 208 170
325 13 74 11 213 -3 279 -17 75 -64 178 -113 245 -34 48 -143 145 -187 167
-27 13 -56 30 -65 38 -10 8 -18 11 -18 6 0 -4 -6 -3 -12 3 -7 5 -27 12 -45 15
-17 3 -37 8 -44 12 -23 15 -203 13 -274 -2z"/>
<path d="M4325 6895 c-5 -1 -37 -9 -70 -16 -133 -29 -286 -134 -362 -249 -30
-45 -73 -129 -77 -152 -2 -7 -5 -20 -9 -28 -14 -40 -18 -58 -24 -110 -11 -96
-5 -222 11 -249 4 -7 6 -15 3 -17 -5 -5 8 -42 41 -114 27 -60 88 -143 139
-191 43 -40 128 -102 143 -104 3 0 16 -7 29 -14 27 -15 62 -27 141 -46 69 -18
267 -13 330 8 201 66 347 203 423 396 26 66 30 92 33 191 2 79 -1 134 -12 175
-8 33 -16 65 -17 70 -2 6 -9 21 -17 35 -7 14 -12 25 -9 25 13 0 -70 124 -114
168 -144 147 -291 216 -472 222 -55 2 -104 2 -110 0z"/>
<path d="M1557 5283 c-1 0 -27 -4 -57 -7 -48 -5 -73 -11 -138 -31 -7 -3 -14
-5 -17 -5 -21 -4 -141 -77 -190 -115 -117 -92 -219 -253 -261 -410 -23 -87
-23 -244 -1 -331 73 -282 304 -494 587 -541 59 -9 4100 -9 4165 0 105 16 242
73 325 135 121 92 238 266 264 395 3 15 9 39 13 55 4 15 7 79 6 142 0 117 -22
221 -61 295 -9 17 -16 32 -17 35 -1 14 -79 120 -117 160 -44 47 -158 136 -158
124 0 -4 -8 -1 -17 8 -35 29 -157 72 -238 84 -40 6 -4082 13 -4088 7z"/>
<path d="M1837 3494 c-1 -1 -22 -4 -47 -7 -65 -7 -211 -56 -230 -76 -3 -4 -18
-13 -34 -21 -55 -28 -206 -188 -206 -218 0 -6 -4 -12 -8 -14 -13 -5 -61 -131
-73 -190 -14 -76 -12 -195 5 -250 8 -27 12 -48 10 -48 -5 0 39 -102 122 -278
24 -51 44 -95 44 -97 0 -2 18 -43 41 -92 23 -48 42 -92 43 -98 2 -5 24 -54 49
-109 26 -54 47 -100 47 -102 0 -1 13 -31 29 -66 16 -35 41 -89 55 -120 14 -32
38 -84 52 -115 14 -32 39 -86 55 -121 16 -35 29 -65 29 -67 0 -2 18 -41 39
-87 69 -147 111 -240 111 -245 0 -2 20 -47 45 -100 25 -52 45 -96 45 -98 0 -3
20 -48 45 -101 25 -53 45 -98 45 -100 0 -16 86 -174 113 -208 74 -93 173 -165
287 -208 245 -92 506 -34 688 152 49 50 102 123 102 139 0 6 5 11 10 11 6 0
10 9 10 19 0 11 4 22 9 25 9 6 37 102 46 161 6 42 9 304 3 310 -1 2 -1 110 2
240 3 130 4 238 3 239 -2 1 -4 321 -6 712 -2 390 -6 717 -8 726 -3 10 -8 21
-12 24 -4 4 -7 14 -7 23 0 23 -46 118 -86 177 -81 124 -239 233 -373 259 -11
2 -27 7 -34 12 -10 6 -1053 13 -1060 7z"/>
<path d="M4357 3493 c-2 -1 -25 -5 -52 -8 -28 -4 -57 -11 -65 -15 -8 -4 -19
-9 -25 -10 -79 -18 -189 -90 -278 -184 -51 -53 -131 -203 -143 -266 -3 -19 -8
-46 -11 -60 -9 -45 -9 -2174 0 -2210 25 -104 65 -198 104 -249 76 -100 176
-181 274 -225 264 -117 598 -28 774 206 43 57 57 84 115 213 12 28 30 68 40
90 33 72 72 159 90 200 10 22 29 65 43 95 14 30 48 107 77 170 28 63 63 139
78 169 14 29 25 59 25 67 0 8 3 14 6 14 3 0 12 15 20 33 8 17 25 57 39 87 13
30 32 73 42 95 10 22 29 65 43 95 14 30 45 100 70 155 25 55 56 125 70 155 14
30 35 78 47 105 12 28 34 75 47 105 57 125 66 145 67 150 1 3 15 34 33 70 61
129 76 190 76 315 -1 107 -7 140 -40 223 -78 197 -243 342 -453 398 -58 15
-125 18 -588 18 -288 1 -524 1 -525 -1z"/>
</g>
</svg>
