<?xml version="1.0" encoding="utf-8"?>
<!-- Generator: Adobe Illustrator 21.1.0, SVG Export Plug-In . SVG Version: 6.00 Build 0)  -->
<svg x="0px" y="0px"
	 viewBox="0 0 35.9 43.7" style="enable-background:new 0 0 35.9 43.7;" xml:space="preserve">
<g id="_Group_">
	<path id="_Path_" class="st0" d="M19.5,38.2V26c0-2.2,1.8-4,4-4H29c2.2,0,4,1.7,4.1,3.9c0,0.6-0.1,1.2-0.4,1.8l-5.5,12.2
		c-0.8,2-3.2,3-5.2,2.2C20.4,41.4,19.4,39.9,19.5,38.2z"/>
	<path id="_Path_2" class="st0" d="M17.3,38.2V26c0-2.2-1.8-4-4-4H7.8c-2.2,0-4,1.7-4.1,3.9c0,0.6,0.1,1.2,0.4,1.8l5.5,12.2
		c0.8,2,3.2,3,5.2,2.2C16.4,41.4,17.4,39.9,17.3,38.2z"/>
	<path id="_Rectangle_" class="st0" d="M6,10.9h24.4c2.5,0,4.5,2,4.5,4.5l0,0c0,2.5-2,4.5-4.5,4.5H6c-2.5,0-4.5-2-4.5-4.5l0,0
		C1.6,12.9,3.6,10.9,6,10.9z"/>
	<path id="_Path_3" class="st0" d="M19.5,5L19.5,5c0,2.2,1.8,4,4,4l0,0c2.2,0.1,4.1-1.7,4.1-3.9c0-1.3-0.5-2.5-1.6-3.3l0,0
		c-1.7-1.4-4.2-1.2-5.6,0.5C19.8,3.1,19.5,4,19.5,5z"/>
	<path id="_Path_4" class="st0" d="M16.9,5L16.9,5c0,2.2-1.8,4-4,4l0,0c-2.2,0.1-4.1-1.7-4.1-3.9c0-1.3,0.5-2.5,1.6-3.3l0,0
		c1.7-1.4,4.2-1.2,5.6,0.5C16.6,3.1,17,4,16.9,5z"/>
</g>
</svg>
